<svg width="15" height="15" viewBox="0 0 17 16" fill="none" xmlns="http://www.w3.org/2000/svg">
<g clip-path="url(#clip0_3:651)">
<path d="M6.50382 7.575C7.25355 7.575 7.97258 7.27738 8.50273 6.7476C9.03288 6.21781 9.33073 5.49925 9.33073 4.75C9.33073 4.00075 9.03288 3.28219 8.50273 2.75241C7.97258 2.22262 7.25355 1.925 6.50382 1.925C5.75409 1.925 5.03506 2.22262 4.50491 2.75241C3.97476 3.28219 3.67691 4.00075 3.67691 4.75C3.67691 5.49925 3.97476 6.21781 4.50491 6.7476C5.03506 7.27738 5.75409 7.575 6.50382 7.575ZM8.26343 4.75C8.26343 5.21632 8.07805 5.66356 7.74807 5.99331C7.41808 6.32307 6.97051 6.50833 6.50382 6.50833C6.03713 6.50833 5.58956 6.32307 5.25957 5.99331C4.92959 5.66356 4.74421 5.21632 4.74421 4.75C4.74421 4.28368 4.92959 3.83644 5.25957 3.50669C5.58956 3.17693 6.03713 2.99167 6.50382 2.99167C6.97051 2.99167 7.41808 3.17693 7.74807 3.50669C8.07805 3.83644 8.26343 4.28368 8.26343 4.75ZM11.0903 13L11.0904 13.075H11.0905L11.0908 13.075L11.0916 13.075L11.0942 13.075L11.1031 13.0747C11.1107 13.0745 11.1215 13.074 11.1351 13.073C11.1622 13.0711 11.2004 13.0673 11.246 13.0597C11.3369 13.0445 11.4592 13.0141 11.5825 12.9525C11.7061 12.8908 11.8319 12.797 11.9267 12.6549C12.0218 12.5123 12.0826 12.3256 12.0826 12.0833C12.0826 11.6057 11.8458 10.6698 11.0287 9.8532C10.2093 9.03442 8.81288 8.34167 6.50382 8.34167C4.19476 8.34167 2.7983 9.03442 1.97895 9.8532C1.1618 10.6698 0.925 11.6057 0.925 12.0833C0.925 12.3256 0.985834 12.5123 1.08094 12.6549C1.17573 12.797 1.30157 12.8908 1.42513 12.9525C1.54839 13.0141 1.67075 13.0445 1.76165 13.0597C1.80728 13.0673 1.84547 13.0711 1.87255 13.073C1.8861 13.074 1.8969 13.0745 1.9045 13.0747L1.91346 13.075L1.91604 13.075L1.91684 13.075L1.91711 13.075H1.91722L1.9173 13V13.075H11.0903V13ZM10.2741 10.6074C10.8206 11.1535 10.983 11.7418 11.0107 12.0047H1.99712C2.02538 11.7415 2.18723 11.1533 2.73351 10.6074C3.31492 10.0264 4.41904 9.40833 6.50382 9.40833C8.58769 9.40833 9.69273 10.0264 10.2741 10.6074Z" fill="white" stroke="white" stroke-width="0.15"/>
<path d="M14.8405 4.83085L12.4664 7.20419L11.4682 6.20581L11.4681 6.20578C11.3679 6.10566 11.2321 6.04942 11.0904 6.04942C10.9487 6.04942 10.8128 6.10566 10.7127 6.20578C10.6125 6.30591 10.5562 6.44172 10.5562 6.58334C10.5562 6.72496 10.6125 6.86076 10.7127 6.96089L12.0885 8.33582C12.0885 8.33583 12.0886 8.33583 12.0886 8.33584C12.1381 8.3855 12.197 8.42489 12.2618 8.45177C12.3267 8.47865 12.3962 8.49249 12.4663 8.49249C12.5365 8.49249 12.606 8.47865 12.6709 8.45177C12.7357 8.42489 12.7946 8.3855 12.8441 8.33584L12.8441 8.33589L12.7911 8.28284L12.8442 8.33582L14.8405 4.83085Z" fill="white" stroke="white" stroke-width="0.15"/>
</g>
<defs>
<clipPath id="clip0_3:651">
<rect width="16.0111" height="16" fill="white" transform="translate(0.03125)"/>
</clipPath>
</defs>
</svg>
