<svg width="15" height="15" viewBox="0 0 24 23" fill="none" xmlns="http://www.w3.org/2000/svg">
<path d="M16.5719 1.91667C16.9182 1.91667 17.2612 1.98484 17.5811 2.11728C17.9011 2.24972 18.1918 2.44385 18.4367 2.68857C18.6816 2.93329 18.8759 3.22381 19.0084 3.54356C19.1409 3.8633 19.2092 4.206 19.2092 4.55209V18.4479C19.2092 18.794 19.1409 19.1367 19.0084 19.4565C18.8759 19.7762 18.6816 20.0667 18.4367 20.3114C18.1918 20.5562 17.9011 20.7503 17.5811 20.8827C17.2612 21.0152 16.9182 21.0833 16.5719 21.0833H6.50242C6.15601 21.0833 5.813 21.0151 5.49297 20.8826C5.17294 20.7501 4.88217 20.5559 4.63727 20.3111C4.39236 20.0663 4.19812 19.7756 4.06565 19.4558C3.93317 19.1359 3.86505 18.7931 3.86517 18.447V4.55209C3.86517 3.34459 4.67649 2.32876 5.78317 2.01538V3.59376C5.49164 3.81226 5.30367 4.15917 5.30367 4.55209V18.446C5.30367 19.1073 5.84071 19.6439 6.50242 19.6439H16.5719C17.2336 19.6439 17.7707 19.1073 17.7707 18.446V4.55209C17.7707 3.89084 17.2336 3.35417 16.5719 3.35417H14.4142V1.91667H16.5719ZM13.4552 1.91667V9.71655C13.4552 10.4324 12.688 10.7008 12.2181 10.4487L12.1394 10.3989L10.1006 9.16742L8.10778 10.3663C7.62828 10.7113 6.83232 10.5005 6.74888 9.83155L6.74217 9.71751V1.91667H13.4552ZM12.0167 3.35417H8.18067V8.64705L9.68917 7.73759C9.80936 7.67374 9.94266 7.63845 10.0787 7.63446C10.2148 7.63047 10.3499 7.65789 10.4736 7.71459L12.0176 8.64801V3.35417H12.0167Z" fill="white"/>
</svg>
