<svg width="25" height="25" viewBox="0 0 25 25" fill="none" xmlns="http://www.w3.org/2000/svg">
<g clip-path="url(#clip0_29:347)">
<path d="M7.63366 6.13143C7.51879 6.13159 7.40542 6.15758 7.30195 6.20746C7.19847 6.25734 7.10753 6.32984 7.03585 6.41961L2.36063 12.2629H9.19718C9.40045 12.2629 9.59539 12.3436 9.73913 12.4873C9.88286 12.6311 9.96361 12.826 9.96361 13.0293C9.96361 13.6391 10.2059 14.2239 10.6371 14.6551C11.0683 15.0863 11.6531 15.3286 12.2629 15.3286C12.8727 15.3286 13.4575 15.0863 13.8887 14.6551C14.3199 14.2239 14.5622 13.6391 14.5622 13.0293C14.5622 12.826 14.6429 12.6311 14.7867 12.4873C14.9304 12.3436 15.1253 12.2629 15.3286 12.2629H22.1652L17.4899 6.41961C17.4183 6.32984 17.3273 6.25734 17.2238 6.20746C17.1204 6.15758 17.007 6.13159 16.8921 6.13143H7.63366ZM22.8917 13.7957H16.0184C15.8425 14.662 15.3725 15.4408 14.6881 16.0003C14.0036 16.5597 13.1469 16.8653 12.2629 16.8653C11.3789 16.8653 10.5221 16.5597 9.83772 16.0003C9.15329 15.4408 8.6833 14.662 8.50739 13.7957H1.63406L2.12457 17.7229C2.14777 17.9085 2.23802 18.0792 2.37835 18.2029C2.51867 18.3265 2.69937 18.3946 2.8864 18.3943H21.6394C21.8262 18.3942 22.0065 18.326 22.1465 18.2024C22.2865 18.0787 22.3765 17.9082 22.3997 17.7229L22.8902 13.7957H22.8917ZM5.83869 5.46157C6.0542 5.19216 6.32759 4.97469 6.63858 4.8253C6.94956 4.67591 7.29019 4.59842 7.6352 4.59857H16.8906C17.2356 4.59842 17.5762 4.67591 17.8872 4.8253C18.1982 4.97469 18.4716 5.19216 18.6871 5.46157L24.3587 12.551C24.4224 12.631 24.4695 12.723 24.4971 12.8214C24.5247 12.9199 24.5324 13.0229 24.5196 13.1243L23.9218 17.913C23.8523 18.4692 23.582 18.9809 23.1616 19.3519C22.7413 19.7228 22.2 19.9274 21.6394 19.9271H2.8864C2.32582 19.9274 1.78447 19.7228 1.36415 19.3519C0.943825 18.9809 0.67349 18.4692 0.603978 17.913L0.00616362 13.1243C-0.00640007 13.0228 0.00150438 12.9197 0.0294107 12.8212C0.0573169 12.7228 0.10466 12.6309 0.168647 12.551L5.84022 5.46157H5.83869Z" fill="#C0BEFF"/>
</g>
<defs>
<clipPath id="clip0_29:347">
<rect width="24.5257" height="24.5257" fill="white"/>
</clipPath>
</defs>
</svg>
