<svg width="38" height="38" viewBox="0 0 38 38" fill="none" xmlns="http://www.w3.org/2000/svg">
<circle cx="19.0001" cy="19" r="15" fill="#5855D6"/>
<path d="M24.3025 13.6975C23.0719 12.4589 21.4478 11.6884 19.71 11.5189C17.9722 11.3495 16.2298 11.7916 14.7831 12.7691C13.3363 13.7466 12.276 15.1983 11.7849 16.8738C11.2937 18.5493 11.4025 20.3436 12.0925 21.9475C12.1644 22.0966 12.188 22.2644 12.16 22.4275L11.5 25.6C11.4746 25.7216 11.4798 25.8477 11.5151 25.9668C11.5505 26.086 11.6149 26.1944 11.7025 26.2825C11.7744 26.3538 11.8599 26.4099 11.954 26.4473C12.0481 26.4847 12.1488 26.5026 12.25 26.5H12.4L15.61 25.855C15.7732 25.8354 15.9386 25.8587 16.09 25.9225C17.6939 26.6125 19.4883 26.7213 21.1638 26.2302C22.8393 25.739 24.2909 24.6787 25.2684 23.232C26.2459 21.7853 26.6881 20.0428 26.5186 18.3051C26.3491 16.5673 25.5787 14.9431 24.34 13.7125L24.3025 13.6975ZM16 19.75C15.8517 19.75 15.7067 19.706 15.5834 19.6236C15.46 19.5412 15.3639 19.4241 15.3071 19.287C15.2504 19.15 15.2355 18.9992 15.2644 18.8537C15.2934 18.7082 15.3648 18.5746 15.4697 18.4697C15.5746 18.3648 15.7082 18.2934 15.8537 18.2644C15.9992 18.2355 16.15 18.2503 16.287 18.3071C16.4241 18.3639 16.5412 18.46 16.6236 18.5833C16.706 18.7067 16.75 18.8517 16.75 19C16.75 19.1989 16.671 19.3897 16.5304 19.5303C16.3897 19.671 16.1989 19.75 16 19.75V19.75ZM19 19.75C18.8517 19.75 18.7067 19.706 18.5833 19.6236C18.46 19.5412 18.3639 19.4241 18.3071 19.287C18.2504 19.15 18.2355 18.9992 18.2644 18.8537C18.2934 18.7082 18.3648 18.5746 18.4697 18.4697C18.5746 18.3648 18.7082 18.2934 18.8537 18.2644C18.9992 18.2355 19.15 18.2503 19.287 18.3071C19.4241 18.3639 19.5412 18.46 19.6236 18.5833C19.706 18.7067 19.75 18.8517 19.75 19C19.75 19.1989 19.671 19.3897 19.5304 19.5303C19.3897 19.671 19.1989 19.75 19 19.75ZM22 19.75C21.8517 19.75 21.7067 19.706 21.5833 19.6236C21.46 19.5412 21.3639 19.4241 21.3071 19.287C21.2504 19.15 21.2355 18.9992 21.2644 18.8537C21.2934 18.7082 21.3648 18.5746 21.4697 18.4697C21.5746 18.3648 21.7082 18.2934 21.8537 18.2644C21.9992 18.2355 22.15 18.2503 22.287 18.3071C22.4241 18.3639 22.5412 18.46 22.6236 18.5833C22.706 18.7067 22.75 18.8517 22.75 19C22.75 19.1989 22.671 19.3897 22.5304 19.5303C22.3897 19.671 22.1989 19.75 22 19.75Z" fill="white"/>
<circle cx="25.5001" cy="13.5" r="3.5" fill="#6FCF97"/>
</svg>
