<svg width="39" height="39" viewBox="0 0 39 39" fill="none" xmlns="http://www.w3.org/2000/svg">
<ellipse cx="19.1706" cy="19.5" rx="15.1346" ry="15" fill="white"/>
<path d="M19.1706 4.0625C10.5821 4.0625 3.59454 10.9879 3.59454 19.5C3.59454 28.0121 10.5821 34.9375 19.1706 34.9375C27.7592 34.9375 34.7467 28.0121 34.7467 19.5C34.7467 10.9879 27.7592 4.0625 19.1706 4.0625ZM19.1706 29C17.6055 29 16.3609 28.3424 16.1939 26.953C16.1895 26.9115 16.194 26.8695 16.207 26.8298C16.2201 26.7901 16.2415 26.7536 16.2697 26.7227C16.298 26.6917 16.3325 26.667 16.3711 26.6502C16.4097 26.6333 16.4514 26.6248 16.4935 26.625H21.844C21.8866 26.6247 21.9287 26.6334 21.9676 26.6505C22.0065 26.6676 22.0413 26.6927 22.0696 26.7241C22.098 26.7556 22.1192 26.7927 22.132 26.8329C22.1447 26.8732 22.1487 26.9156 22.1436 26.9575C21.9526 28.3209 20.7192 29 19.1706 29ZM26.5094 25.4375H11.8319C10.9453 25.4375 10.484 24.3242 10.9939 23.7305C12.2168 22.2951 13.081 21.6917 13.081 17.7336C13.081 14.1065 15.0085 12.8196 16.6006 12.1917C16.7101 12.1464 16.8089 12.0789 16.8906 11.9935C16.9722 11.9082 17.0349 11.8068 17.0746 11.6959C17.3509 10.7867 18.1327 10 19.1706 10C20.2085 10 20.9888 10.7867 21.2674 11.6966C21.3074 11.8075 21.3702 11.9088 21.452 11.9942C21.5337 12.0796 21.6326 12.1471 21.7422 12.1924C23.3305 12.8188 25.2618 14.108 25.2618 17.7343C25.2618 21.6924 26.1252 22.2958 27.3481 23.7312C27.8528 24.3242 27.3907 25.4375 26.5094 25.4375V25.4375Z" fill="#5855D6"/>
<ellipse cx="25.729" cy="14" rx="3.53142" ry="3.5" fill="#FF2C55"/>
</svg>
