<svg width="28" height="28" viewBox="0 0 28 28" fill="none" xmlns="http://www.w3.org/2000/svg">
<g opacity="0.6">
<path d="M9.33334 13.9999C9.33281 13.7274 9.42774 13.4632 9.60167 13.2533L15.435 6.25328C15.633 6.01503 15.9176 5.8652 16.2261 5.83675C16.5346 5.80831 16.8418 5.90358 17.08 6.10161C17.3183 6.29964 17.4681 6.5842 17.4965 6.8927C17.525 7.2012 17.4297 7.50836 17.2317 7.74661L12.005 13.9999L17.045 20.2533C17.1419 20.3726 17.2143 20.5099 17.258 20.6573C17.3016 20.8047 17.3157 20.9593 17.2995 21.1122C17.2832 21.265 17.2369 21.4132 17.1632 21.5481C17.0895 21.683 16.9899 21.802 16.87 21.8983C16.75 22.0051 16.6093 22.086 16.4566 22.136C16.3039 22.1859 16.1426 22.2037 15.9827 22.1884C15.8228 22.1731 15.6678 22.1249 15.5273 22.0469C15.3869 21.9688 15.2641 21.8626 15.1667 21.7349L9.53167 14.7349C9.38524 14.519 9.31541 14.2602 9.33334 13.9999V13.9999Z" fill="#C0BEFF"/>
</g>
</svg>
