<svg width="32" height="31" viewBox="0 0 32 31" fill="none" xmlns="http://www.w3.org/2000/svg">
<path d="M16.1706 0.0625C7.58206 0.0625 0.594543 6.98785 0.594543 15.5C0.594543 24.0121 7.58206 30.9375 16.1706 30.9375C24.7592 30.9375 31.7467 24.0121 31.7467 15.5C31.7467 6.98785 24.7592 0.0625 16.1706 0.0625ZM16.1706 25C14.6055 25 13.3609 24.3424 13.1939 22.953C13.1895 22.9115 13.194 22.8695 13.207 22.8298C13.2201 22.7901 13.2415 22.7536 13.2697 22.7227C13.298 22.6917 13.3325 22.667 13.3711 22.6502C13.4097 22.6333 13.4514 22.6248 13.4935 22.625H18.844C18.8866 22.6247 18.9287 22.6334 18.9676 22.6505C19.0065 22.6676 19.0413 22.6927 19.0696 22.7241C19.098 22.7556 19.1192 22.7927 19.132 22.8329C19.1447 22.8732 19.1487 22.9156 19.1436 22.9575C18.9526 24.3209 17.7192 25 16.1706 25ZM23.5094 21.4375H8.83189C7.94525 21.4375 7.48396 20.3242 7.99393 19.7305C9.2168 18.2951 10.081 17.6917 10.081 13.7336C10.081 10.1065 12.0085 8.81957 13.6006 8.19168C13.7101 8.14643 13.8089 8.07893 13.8906 7.99354C13.9722 7.90815 14.0349 7.80676 14.0746 7.6959C14.3509 6.78672 15.1327 6 16.1706 6C17.2085 6 17.9888 6.78672 18.2674 7.69664C18.3074 7.80748 18.3702 7.90884 18.452 7.99421C18.5337 8.07958 18.6326 8.14709 18.7422 8.19242C20.3305 8.81883 22.2618 10.108 22.2618 13.7343C22.2618 17.6924 23.1252 18.2958 24.3481 19.7312C24.8528 20.3242 24.3907 21.4375 23.5094 21.4375Z" fill="#5855D6"/>
</svg>
