<svg width="25" height="24" viewBox="0 0 25 24" fill="none" xmlns="http://www.w3.org/2000/svg">
<path fill-rule="evenodd" clip-rule="evenodd" d="M16.4716 14.899L21.8998 20.279C22.0906 20.4682 22.1978 20.7248 22.1977 20.9923C22.1976 21.2599 22.0903 21.5164 21.8993 21.7055C21.7084 21.8946 21.4495 22.0008 21.1796 22.0007C20.9097 22.0006 20.6508 21.8942 20.46 21.705L15.0317 16.325C13.409 17.5707 11.3684 18.1569 9.3251 17.9643C7.28177 17.7718 5.38919 16.815 4.03237 15.2886C2.67555 13.7622 1.95641 11.7808 2.02124 9.74753C2.08608 7.71427 2.93003 5.78185 4.3814 4.34339C5.83276 2.90494 7.78253 2.0685 9.83405 2.00424C11.8856 1.93998 13.8847 2.65272 15.4249 3.99747C16.965 5.34222 17.9304 7.21796 18.1246 9.24312C18.3189 11.2683 17.7274 13.2907 16.4705 14.899H16.4716ZM10.0898 16C11.6954 16 13.2352 15.3678 14.3705 14.2426C15.5058 13.1174 16.1436 11.5913 16.1436 9.99999C16.1436 8.40869 15.5058 6.88257 14.3705 5.75735C13.2352 4.63213 11.6954 3.99999 10.0898 3.99999C8.48419 3.99999 6.94437 4.63213 5.80905 5.75735C4.67373 6.88257 4.03592 8.40869 4.03592 9.99999C4.03592 11.5913 4.67373 13.1174 5.80905 14.2426C6.94437 15.3678 8.48419 16 10.0898 16Z" fill="#5855D6"/>
</svg>
