<svg width="28" height="28" viewBox="0 0 28 28" fill="none" xmlns="http://www.w3.org/2000/svg">
<path d="M9.33334 15.9999C9.33281 15.7273 9.42774 15.4631 9.60167 15.2532L15.435 8.25325C15.633 8.015 15.9176 7.86517 16.2261 7.83672C16.5346 7.80828 16.8418 7.90355 17.08 8.10158C17.3183 8.29961 17.4681 8.58417 17.4965 8.89267C17.525 9.20117 17.4297 9.50833 17.2317 9.74658L12.005 15.9999L17.045 22.2533C17.1419 22.3726 17.2143 22.5099 17.258 22.6573C17.3016 22.8047 17.3157 22.9593 17.2995 23.1121C17.2832 23.265 17.2369 23.4131 17.1632 23.5481C17.0895 23.683 16.9899 23.802 16.87 23.8983C16.75 24.0051 16.6093 24.086 16.4566 24.1359C16.3039 24.1859 16.1426 24.2037 15.9827 24.1884C15.8228 24.173 15.6678 24.1249 15.5273 24.0468C15.3869 23.9688 15.2641 23.8626 15.1667 23.7349L9.53167 16.7349C9.38524 16.519 9.31541 16.2602 9.33334 15.9999Z" fill="#5855D6"/>
</svg>
