<svg width="9" height="17" viewBox="0 0 9 17" fill="none" xmlns="http://www.w3.org/2000/svg">
<path d="M8.74893 8.43789C8.75409 8.71641 8.66156 8.98794 8.4874 9.20535L2.64557 16.4564C2.44726 16.7032 2.15904 16.8611 1.84431 16.8954C1.52958 16.9297 1.21412 16.8375 0.967328 16.6392C0.720538 16.4409 0.562633 16.1527 0.52835 15.838C0.494067 15.5232 0.586215 15.2078 0.784521 14.961L6.01912 8.4831L0.763597 2.17896C0.662558 2.05866 0.586289 1.91959 0.539174 1.76972C0.492058 1.61986 0.475026 1.46216 0.489055 1.30569C0.503085 1.14922 0.547899 0.997067 0.620922 0.857974C0.693946 0.718881 0.79374 0.595591 0.914567 0.495191C1.03533 0.383992 1.17775 0.298931 1.33292 0.245335C1.48808 0.19174 1.65264 0.170768 1.81629 0.183729C1.97994 0.19669 2.13914 0.243306 2.28394 0.320658C2.42873 0.398011 2.55599 0.504433 2.65774 0.633255L8.53385 7.69025C8.68712 7.9084 8.76285 8.17163 8.74893 8.43789V8.43789Z" fill="#5855D6"/>
</svg>
