<svg width="15" height="15" viewBox="0 0 19 18" fill="none" xmlns="http://www.w3.org/2000/svg">
<path d="M9.53713 10.5C9.68557 10.5 9.83068 10.456 9.9541 10.3736C10.0775 10.2912 10.1737 10.1741 10.2305 10.037C10.2873 9.89997 10.3022 9.74917 10.2732 9.60368C10.2443 9.4582 10.1728 9.32456 10.0678 9.21967C9.96287 9.11478 9.82914 9.04335 9.68355 9.01441C9.53796 8.98547 9.38706 9.00032 9.24992 9.05709C9.11278 9.11386 8.99556 9.20999 8.91309 9.33332C8.83063 9.45666 8.78661 9.60166 8.78661 9.75C8.78661 9.94891 8.86568 10.1397 9.00643 10.2803C9.14718 10.421 9.33808 10.5 9.53713 10.5ZM13.2897 10.5C13.4382 10.5 13.5833 10.456 13.7067 10.3736C13.8301 10.2912 13.9263 10.1741 13.9831 10.037C14.0399 9.89997 14.0548 9.74917 14.0258 9.60368C13.9969 9.4582 13.9254 9.32456 13.8204 9.21967C13.7155 9.11478 13.5817 9.04335 13.4362 9.01441C13.2906 8.98547 13.1397 9.00032 13.0025 9.05709C12.8654 9.11386 12.7482 9.20999 12.6657 9.33332C12.5832 9.45666 12.5392 9.60166 12.5392 9.75C12.5392 9.94891 12.6183 10.1397 12.759 10.2803C12.8998 10.421 13.0907 10.5 13.2897 10.5ZM9.53713 13.5C9.68557 13.5 9.83068 13.456 9.9541 13.3736C10.0775 13.2912 10.1737 13.1741 10.2305 13.037C10.2873 12.9 10.3022 12.7492 10.2732 12.6037C10.2443 12.4582 10.1728 12.3246 10.0678 12.2197C9.96287 12.1148 9.82914 12.0433 9.68355 12.0144C9.53796 11.9855 9.38706 12.0003 9.24992 12.0571C9.11278 12.1139 8.99556 12.21 8.91309 12.3333C8.83063 12.4567 8.78661 12.6017 8.78661 12.75C8.78661 12.9489 8.86568 13.1397 9.00643 13.2803C9.14718 13.421 9.33808 13.5 9.53713 13.5ZM13.2897 13.5C13.4382 13.5 13.5833 13.456 13.7067 13.3736C13.8301 13.2912 13.9263 13.1741 13.9831 13.037C14.0399 12.9 14.0548 12.7492 14.0258 12.6037C13.9969 12.4582 13.9254 12.3246 13.8204 12.2197C13.7155 12.1148 13.5817 12.0433 13.4362 12.0144C13.2906 11.9855 13.1397 12.0003 13.0025 12.0571C12.8654 12.1139 12.7482 12.21 12.6657 12.3333C12.5832 12.4567 12.5392 12.6017 12.5392 12.75C12.5392 12.9489 12.6183 13.1397 12.759 13.2803C12.8998 13.421 13.0907 13.5 13.2897 13.5ZM5.78453 10.5C5.93296 10.5 6.07807 10.456 6.20149 10.3736C6.32492 10.2912 6.42111 10.1741 6.47792 10.037C6.53472 9.89997 6.54958 9.74917 6.52063 9.60368C6.49167 9.4582 6.42019 9.32456 6.31522 9.21967C6.21026 9.11478 6.07653 9.04335 5.93095 9.01441C5.78536 8.98547 5.63445 9.00032 5.49731 9.05709C5.36017 9.11386 5.24296 9.20999 5.16049 9.33332C5.07802 9.45666 5.034 9.60166 5.034 9.75C5.034 9.94891 5.11308 10.1397 5.25383 10.2803C5.39458 10.421 5.58548 10.5 5.78453 10.5ZM14.7908 3H14.0403V2.25C14.0403 2.05109 13.9612 1.86032 13.8204 1.71967C13.6797 1.57902 13.4888 1.5 13.2897 1.5C13.0907 1.5 12.8998 1.57902 12.759 1.71967C12.6183 1.86032 12.5392 2.05109 12.5392 2.25V3H6.53505V2.25C6.53505 2.05109 6.45597 1.86032 6.31522 1.71967C6.17447 1.57902 5.98358 1.5 5.78453 1.5C5.58548 1.5 5.39458 1.57902 5.25383 1.71967C5.11308 1.86032 5.034 2.05109 5.034 2.25V3H4.28348C3.68633 3 3.11364 3.23705 2.69139 3.65901C2.26914 4.08097 2.03192 4.65326 2.03192 5.25V14.25C2.03192 14.8467 2.26914 15.419 2.69139 15.841C3.11364 16.2629 3.68633 16.5 4.28348 16.5H14.7908C15.3879 16.5 15.9606 16.2629 16.3829 15.841C16.8051 15.419 17.0423 14.8467 17.0423 14.25V5.25C17.0423 4.65326 16.8051 4.08097 16.3829 3.65901C15.9606 3.23705 15.3879 3 14.7908 3V3ZM15.5413 14.25C15.5413 14.4489 15.4622 14.6397 15.3215 14.7803C15.1807 14.921 14.9898 15 14.7908 15H4.28348C4.08443 15 3.89354 14.921 3.75279 14.7803C3.61204 14.6397 3.53296 14.4489 3.53296 14.25V7.5H15.5413V14.25ZM15.5413 6H3.53296V5.25C3.53296 5.05109 3.61204 4.86032 3.75279 4.71967C3.89354 4.57902 4.08443 4.5 4.28348 4.5H14.7908C14.9898 4.5 15.1807 4.57902 15.3215 4.71967C15.4622 4.86032 15.5413 5.05109 15.5413 5.25V6ZM5.78453 13.5C5.93296 13.5 6.07807 13.456 6.20149 13.3736C6.32492 13.2912 6.42111 13.1741 6.47792 13.037C6.53472 12.9 6.54958 12.7492 6.52063 12.6037C6.49167 12.4582 6.42019 12.3246 6.31522 12.2197C6.21026 12.1148 6.07653 12.0433 5.93095 12.0144C5.78536 11.9855 5.63445 12.0003 5.49731 12.0571C5.36017 12.1139 5.24296 12.21 5.16049 12.3333C5.07802 12.4567 5.034 12.6017 5.034 12.75C5.034 12.9489 5.11308 13.1397 5.25383 13.2803C5.39458 13.421 5.58548 13.5 5.78453 13.5Z" fill="#C0BEFF"/>
</svg>
